<?xml version="1.0" encoding="UTF-8"?>
<svg xmlns="http://www.w3.org/2000/svg" xmlns:xlink="http://www.w3.org/1999/xlink" xmlns:svgjs="http://svgjs.com/svgjs" version="1.1" width="512" height="512" x="0" y="0" viewBox="0 0 512 512" style="enable-background:new 0 0 512 512" xml:space="preserve" class="">
  <g>
    <g>
      <g>
        <g fill="#020288">
          <path d="m321 301.33c-5.522 0-10 4.477-10 10v67.17c0 12.406-10.094 22.5-22.5 22.5s-22.5-10.094-22.5-22.5v-56.63c0-5.522-4.478-10-10-10-5.523 0-10 4.478-10 10v126.63c0 12.406-10.093 22.5-22.5 22.5s-22.5-10.094-22.5-22.5v-117.79c0-5.522-4.477-10-10-10s-10 4.478-10 10v117.79c0 23.435 19.065 42.5 42.5 42.5s42.5-19.065 42.5-42.5v-33.969c6.53 4.093 14.241 6.469 22.5 6.469 23.435 0 42.5-19.065 42.5-42.5v-67.17c0-5.522-4.478-10-10-10z" fill="#f47999" data-original="#020288" class=""/>
          <path d="m376 21c-19.299 0-35 15.701-35 35v65h-45.027c6.292-8.362 10.027-18.752 10.027-30 0-27.57-22.43-50-50-50s-50 22.43-50 50c0 11.248 3.735 21.638 10.027 30h-45.027v-65c0-19.299-15.701-35-35-35s-35 15.701-35 35v95c0 22.056 17.944 40 40 40h40v79.67c0 5.523 4.477 10 10 10s10-4.477 10-10v-89.67c0-5.523-4.477-10-10-10h-50c-11.028 0-20-8.972-20-20v-95c0-8.271 6.729-15 15-15s15 6.729 15 15v75c0 5.523 4.477 10 10 10h190c5.522 0 10-4.477 10-10v-75c0-8.271 6.728-15 15-15s15 6.729 15 15v95c0 11.028-8.972 20-20 20h-50c-5.522 0-10 4.477-10 10v70.29c0 5.523 4.478 10 10 10s10-4.478 10-10v-60.29h40c22.056 0 40-17.944 40-40v-95c0-19.299-15.701-35-35-35zm-120 100c-16.542 0-30-13.458-30-30s13.458-30 30-30 30 13.458 30 30-13.458 30-30 30z" fill="#f47999" data-original="#020288" class=""/>
        </g>
        <path d="m512 341h-10c-46.663 0-72.973-6.443-92.183-11.148-18.589-4.552-36.145-8.852-72.153-8.852s-53.566 4.3-72.153 8.852c-21.337 5.225-45.52 11.148-91.183 11.148-45.662 0-69.844-5.923-91.179-11.148-17.769-4.352-36.143-8.852-73.149-8.852h-10v-80h10c46.662 0 72.97 6.443 92.179 11.148 18.587 4.553 36.143 8.852 72.149 8.852 36.008 0 53.565-4.3 72.154-8.852 21.336-5.225 45.519-11.148 91.182-11.148s69.846 5.923 91.183 11.148c17.77 4.352 36.145 8.852 73.153 8.852h10z" fill="#fbc9d6" data-original="#b2f0fb" class=""/>
      </g>
    </g>
  </g>
</svg>
