<?xml version="1.0" encoding="UTF-8"?>
<svg xmlns="http://www.w3.org/2000/svg" xmlns:xlink="http://www.w3.org/1999/xlink" xmlns:svgjs="http://svgjs.com/svgjs" version="1.1" width="512" height="512" x="0" y="0" viewBox="0 0 512 512" style="enable-background:new 0 0 512 512" xml:space="preserve" class="">
  <g>
<g id="XMLID_550_">
	
		<line id="XMLID_551_" style="stroke-width:20;stroke-linecap:round;stroke-linejoin:round;stroke-miterlimit:10;" x1="334.64" y1="371.239" x2="311.225" y2="324.408" fill="none" stroke="#fddba0" stroke-width="20" stroke-linecap="round" stroke-linejoin="round" stroke-miterlimit="10" data-original="#020288" class=""/>
	
		<line id="XMLID_552_" style="stroke-width:20;stroke-linecap:round;stroke-linejoin:round;stroke-miterlimit:10;" x1="396.602" y1="355.735" x2="375.445" y2="313.423" fill="none" stroke="#fddba0" stroke-width="20" stroke-linecap="round" stroke-linejoin="round" stroke-miterlimit="10" data-original="#020288" class=""/>
	<path id="XMLID_553_" style="" d="M144.03,264.239c32.77-31.05,52.149-58.77,80.909-82.3   c32.69-26.74,63.631-55.94,99.9-78.07c0,0,0,0,0.01,0c0.051-0.01,0.101-0.02,0.16-0.03c68.65-12.21,97.55,84.14,33.78,112.36   c-35.39,15.65-117.85-1.1-214.75,48.05L144.03,264.239z" fill="#fef1d9" data-original="#b2f0fb" class=""/>
	
		<path id="XMLID_554_" style="stroke-width:20;stroke-linecap:round;stroke-linejoin:round;stroke-miterlimit:10;" d="   M144.03,264.239c-28.971,27.47-68.4,57.56-134.03,89.68l40.16,11.8v30.12c95.7-57.13,150.62-120.49,206.52-110.45l0.07,0.01   c11.99,2.13,21.92,10.53,26,22.01l1.03,2.89c3.63,10.2,14.6,16.12,24.95,12.95c11.029-3.38,16.89-15.24,13.039-25.99   c-1.899-5.31,1.681-10.99,7.28-11.64c0.08-0.01,0.15-0.02,0.23-0.03c4.189-0.49,8.29,1.47,10.54,5.05l10.02,15.92   c6.15,9.23,18.61,11.73,27.84,5.58c5.81-3.87,8.95-10.24,8.95-16.73c0-3.82-1.09-7.69-3.37-11.11c-0.96-1.54-1.42-3.24-1.42-4.91   c0-3.53,2.021-6.95,5.54-8.46c45.87-19.7,81.62-61.39,62.22-147.3c-8.27-36.61,17.16-53.14,52.4-63.93   c-2.1-5.41-27.2-7.86-42.41-20.22c-68.04-55.31-104.13,47-125.34,58.88c-3.18,1.78-6.311,3.62-9.4,5.51c-0.01,0-0.01,0-0.01,0   c-36.27,22.13-67.21,51.33-99.9,78.07C196.18,205.469,176.8,233.189,144.03,264.239z" fill="none" stroke="#fddba0" stroke-width="20" stroke-linecap="round" stroke-linejoin="round" stroke-miterlimit="10" data-original="#020288" class=""/>
	
		<line id="XMLID_555_" style="stroke-width:20;stroke-linecap:round;stroke-linejoin:round;stroke-miterlimit:10;" x1="421.674" y1="64.492" x2="421.674" y2="64.492" fill="none" stroke="#fddba0" stroke-width="20" stroke-linecap="round" stroke-linejoin="round" stroke-miterlimit="10" data-original="#020288" class=""/>
	
		<path id="XMLID_556_" style="stroke-width:20;stroke-linecap:round;stroke-linejoin:round;stroke-miterlimit:10;" d="   M377.931,401.779l103.422-25.967c10.757-2.701,17.288-13.61,14.587-24.367l0,0c-2.701-10.757-13.611-17.288-24.367-14.587   L25.196,449.247c-10.757,2.701-17.288,13.61-14.587,24.367l0,0c2.701,10.757,13.61,17.288,24.367,14.587l237.396-59.918   c33.345-8.373,68.668-2.528,97.538,16.138l63.294,40.923c9.314,6.021,21.745,3.353,27.768-5.96l0,0   c6.023-9.315,3.354-21.747-5.96-27.769l-77.077-49.833L377.931,401.779z" fill="none" stroke="#fddba0" stroke-width="20" stroke-linecap="round" stroke-linejoin="round" stroke-miterlimit="10" data-original="#020288" class=""/>
</g>















</g>
</svg>
