<?xml version="1.0" encoding="UTF-8"?>
<svg id="Camada_2" data-name="Camada 2" xmlns="http://www.w3.org/2000/svg" viewBox="0 0 512 512">
  <defs>
    <style>
      .cls-1 {
        fill: #fff;
      }
    </style>
  </defs>
  <g id="Camada_1-2" data-name="Camada 1">
    <g>
      <path class="cls-1" d="M308.43,190.36c.2,0,.3,.1,.3,.31v130.66c0,.1-.1,.2-.3,.2H133.63c-.2,0-.31-.1-.31-.2V190.67c0-.2,.1-.31,.31-.31h174.8Z"/>
      <polygon class="cls-1" points="339.66 232.04 378.57 207.15 378.57 304.84 339.66 279.96 339.66 232.04"/>
      <path class="cls-1" d="M256,0C114.58,0,0,114.58,0,256s114.58,256,256,256,256-114.69,256-256S397.31,0,256,0Zm153.6,333.11c0,5.63-3.07,10.85-8.09,13.51-2.35,1.33-4.91,1.95-7.47,1.95-2.87,0-5.73-.82-8.29-2.46l-46.08-29.39v4.61c0,17.2-14.03,31.23-31.23,31.23H133.63c-17.2,0-31.23-14.03-31.23-31.23V190.67c0-17.2,14.03-31.23,31.23-31.23h174.8c17.2,0,31.23,14.03,31.23,31.23v4.61l46.08-29.49c4.81-2.97,10.85-3.17,15.77-.51,5.02,2.76,8.09,7.99,8.09,13.62v154.21Z"/>
    </g>
  </g>
</svg>