<?xml version="1.0" encoding="UTF-8"?>
<svg id="Camada_2" data-name="Camada 2" xmlns="http://www.w3.org/2000/svg" viewBox="0 0 512 512">
  <defs>
    <style>
      .cls-1 {
        fill: #22263b;
      }
    </style>
  </defs>
  <g id="Camada_1-2" data-name="Camada 1">
    <g>
      <path class="cls-1" d="M191.28,267.78c1.02,35.43,7.68,81.3,25.09,112.02-48.74-15.67-85.09-59.39-89.8-112.02h64.72Z"/>
      <path class="cls-1" d="M191.28,244.22H126.56c4.71-52.73,41.06-96.46,89.8-112.13-17.41,30.82-24.06,76.59-25.09,112.13Z"/>
      <path class="cls-1" d="M297.27,267.78c-2.25,72.6-25.19,118.27-41.27,118.27s-38.91-45.67-41.16-118.27h82.43Z"/>
      <path class="cls-1" d="M214.83,244.22c2.25-72.6,25.19-118.27,41.16-118.27s39.01,45.67,41.27,118.27h-82.43Z"/>
      <path class="cls-1" d="M320.82,267.78h64.72c-4.71,52.63-41.06,96.36-89.8,112.02,17.41-30.72,24.06-76.49,25.09-112.02Z"/>
      <path class="cls-1" d="M385.53,244.22h-64.72c-1.02-35.53-7.68-81.3-25.09-112.13,48.74,15.67,85.09,59.39,89.8,112.13Z"/>
      <path class="cls-1" d="M256,0C114.69,0,0,114.59,0,256s114.69,256,256,256,256-114.69,256-256S397.41,0,256,0Zm0,409.6c-84.68,0-153.6-68.92-153.6-153.6S171.31,102.4,256,102.4c42.39,0,80.79,17.2,108.54,45.06,27.85,27.75,45.06,66.25,45.06,108.54,0,84.68-68.81,153.6-153.6,153.6Z"/>
    </g>
  </g>
</svg>