<?xml version="1.0" encoding="UTF-8"?>
<svg xmlns="http://www.w3.org/2000/svg" xmlns:xlink="http://www.w3.org/1999/xlink" xmlns:svgjs="http://svgjs.com/svgjs" version="1.1" width="512" height="512" x="0" y="0" viewBox="0 0 512 512" style="enable-background:new 0 0 512 512" xml:space="preserve" class="">
  <g>
<g id="XMLID_707_">
	<g id="XMLID_706_">
		
			<polyline id="XMLID_1051_" style="stroke-width:20;stroke-linecap:round;stroke-linejoin:round;stroke-miterlimit:10;" points="    220.857,80.286 502,80.286 502,160.612 220.857,160.612   " fill="none" stroke="#f47999" stroke-width="20" stroke-linecap="round" stroke-linejoin="round" stroke-miterlimit="10" data-original="#020288"/>
		
			<polyline id="XMLID_1050_" style="stroke-width:20;stroke-linecap:round;stroke-linejoin:round;stroke-miterlimit:10;" points="    80.286,160.612 10,160.612 10,80.286 80.286,80.286   " fill="none" stroke="#f47999" stroke-width="20" stroke-linecap="round" stroke-linejoin="round" stroke-miterlimit="10" data-original="#020288"/>
		
			<polyline id="XMLID_176_" style="stroke-width:20;stroke-linecap:round;stroke-linejoin:round;stroke-miterlimit:10;" points="    190.735,180.694 190.735,441.755 110.408,441.755 110.408,180.694   " fill="none" stroke="#f47999" stroke-width="20" stroke-linecap="round" stroke-linejoin="round" stroke-miterlimit="10" data-original="#020288"/>
		
			<rect id="XMLID_1048_" x="80.286" y="441.755" style="stroke-width:20;stroke-linecap:round;stroke-linejoin:round;stroke-miterlimit:10;" width="140.571" height="60.245" fill="none" stroke="#f47999" stroke-width="20" stroke-linecap="round" stroke-linejoin="round" stroke-miterlimit="10" data-original="#020288"/>
		
			<polyline id="XMLID_177_" style="stroke-width:20;stroke-linecap:round;stroke-linejoin:round;stroke-miterlimit:10;" points="    170.653,60.204 170.653,10 130.49,10 130.49,60.204   " fill="none" stroke="#f47999" stroke-width="20" stroke-linecap="round" stroke-linejoin="round" stroke-miterlimit="10" data-original="#020288"/>
		
			<polyline id="XMLID_1045_" style="stroke-width:20;stroke-linecap:round;stroke-linejoin:round;stroke-miterlimit:10;" points="    130.49,10 10,30.082 10,80.286   " fill="none" stroke="#f47999" stroke-width="20" stroke-linecap="round" stroke-linejoin="round" stroke-miterlimit="10" data-original="#020288"/>
		
			<polyline id="XMLID_1044_" style="stroke-width:20;stroke-linecap:round;stroke-linejoin:round;stroke-miterlimit:10;" points="    110.408,180.694 190.735,245.959 110.408,311.224 190.735,376.49 110.408,441.755   " fill="none" stroke="#f47999" stroke-width="20" stroke-linecap="round" stroke-linejoin="round" stroke-miterlimit="10" data-original="#020288"/>
		
			<polyline id="XMLID_1043_" style="stroke-width:20;stroke-linecap:round;stroke-linejoin:round;stroke-miterlimit:10;" points="    502,80.286 431.714,160.612 361.429,80.286 291.143,160.612 220.857,80.286   " fill="none" stroke="#f47999" stroke-width="20" stroke-linecap="round" stroke-linejoin="round" stroke-miterlimit="10" data-original="#020288"/>
		
			<line id="XMLID_1042_" style="stroke-width:20;stroke-linecap:round;stroke-linejoin:round;stroke-miterlimit:10;" x1="170.653" y1="10" x2="502" y2="80.286" fill="none" stroke="#f47999" stroke-width="20" stroke-linecap="round" stroke-linejoin="round" stroke-miterlimit="10" data-original="#020288"/>
		
			<rect id="XMLID_1041_" x="371.469" y="160.612" style="stroke-width:20;stroke-linecap:round;stroke-linejoin:round;stroke-miterlimit:10;" width="80.326" height="40.163" fill="none" stroke="#f47999" stroke-width="20" stroke-linecap="round" stroke-linejoin="round" stroke-miterlimit="10" data-original="#020288"/>
		
			<line id="XMLID_1040_" style="stroke-width:20;stroke-linecap:round;stroke-linejoin:round;stroke-miterlimit:10;" x1="411.633" y1="200.775" x2="411.633" y2="240.939" fill="none" stroke="#f47999" stroke-width="20" stroke-linecap="round" stroke-linejoin="round" stroke-miterlimit="10" data-original="#020288"/>
		
			<path id="XMLID_1039_" style="stroke-width:20;stroke-linecap:round;stroke-linejoin:round;stroke-miterlimit:10;" d="    M421.673,281.102h-20.082c-11.091,0-20.082-8.991-20.082-20.082l0,0c0-11.091,8.991-20.082,20.082-20.082h20.082    c11.091,0,20.082,8.991,20.082,20.082l0,0C441.755,272.111,432.764,281.102,421.673,281.102z" fill="none" stroke="#f47999" stroke-width="20" stroke-linecap="round" stroke-linejoin="round" stroke-miterlimit="10" data-original="#020288"/>
		
			<path id="XMLID_1038_" style="stroke-width:20;stroke-linecap:round;stroke-linejoin:round;stroke-miterlimit:10;" d="    M411.633,281.102v40.163c16.636,0,30.122,13.486,30.122,30.122c0,16.636-13.486,30.122-30.122,30.122    c-16.636,0-30.122-13.486-30.122-30.122" fill="none" stroke="#f47999" stroke-width="20" stroke-linecap="round" stroke-linejoin="round" stroke-miterlimit="10" data-original="#020288"/>
	</g>
	<g id="XMLID_705_">
		<path id="XMLID_178_" style="" d="M230.857,190.694H70.286V50.204h160.571V190.694z" fill="#fbc9d6" data-original="#ffbdbc" class=""/>
	</g>
</g>















</g>
</svg>
