<?xml version="1.0" encoding="UTF-8"?>
<svg id="Camada_2" data-name="Camada 2" xmlns="http://www.w3.org/2000/svg" viewBox="0 0 512 512">
  <defs>
    <style>
      .cls-1 {
        fill: #22263b;
      }
    </style>
  </defs>
  <g id="Camada_1-2" data-name="Camada 1">
    <path class="cls-1" d="M256,124.93c-1.33,0-2.66,.2-3.89,.51-2.46,.72-4.61,1.94-6.45,3.79-2.76,2.76-4.3,6.45-4.3,10.34s1.53,7.58,4.3,10.34,6.45,4.3,10.34,4.3,7.58-1.54,10.24-4.3c2.76-2.76,4.3-6.45,4.3-10.34,0-8.09-6.55-14.64-14.54-14.64Zm35.33,25.91c-1.74,5.63-4.81,10.75-9.11,15.05-4.71,4.61-10.34,7.88-16.59,9.52-3.07,.92-6.35,1.33-9.62,1.33-16.59,0-30.62-10.96-35.43-25.91h-82.74v236.24h236.24V150.83h-82.74Zm-32.46,212.38c-.92,.31-1.94,.41-2.87,.41h-80.59c-6.25,0-11.26-5.02-11.26-11.26s5.02-11.26,11.26-11.26h80.59c6.14,0,11.26,5.02,11.26,11.26,0,5.22-3.58,9.62-8.4,10.85Zm80.48-46.9c-.92,.2-1.84,.31-2.86,.31H175.41c-6.14,0-11.26-5.02-11.26-11.26s5.12-11.26,11.26-11.26h161.07c6.24,0,11.26,5.02,11.26,11.26,0,5.22-3.58,9.62-8.4,10.96Zm0-47c-.92,.2-1.84,.41-2.86,.41H175.41c-6.25,0-11.26-5.12-11.26-11.26s5.12-11.37,11.26-11.26l161.07-.1c6.24,.1,11.26,5.12,11.26,11.37,0,5.12-3.58,9.52-8.4,10.85Zm0-47c-.92,.31-1.84,.41-2.86,.41H175.41c-6.25,0-11.26-5.02-11.26-11.26s5.02-11.26,11.26-11.26h161.07c6.24,0,11.26,5.02,11.26,11.26,0,5.22-3.58,9.62-8.4,10.85Zm-48.02-71.47c-1.74,5.63-4.81,10.75-9.11,15.05-4.71,4.61-10.34,7.88-16.59,9.52-3.07,.92-6.35,1.33-9.62,1.33-16.59,0-30.62-10.96-35.43-25.91h-82.74v236.24h236.24V150.83h-82.74Zm-32.46,212.38c-.92,.31-1.94,.41-2.87,.41h-80.59c-6.25,0-11.26-5.02-11.26-11.26s5.02-11.26,11.26-11.26h80.59c6.14,0,11.26,5.02,11.26,11.26,0,5.22-3.58,9.62-8.4,10.85Zm80.48-46.9c-.92,.2-1.84,.31-2.86,.31H175.41c-6.14,0-11.26-5.02-11.26-11.26s5.12-11.26,11.26-11.26h161.07c6.24,0,11.26,5.02,11.26,11.26,0,5.22-3.58,9.62-8.4,10.96Zm0-47c-.92,.2-1.84,.41-2.86,.41H175.41c-6.25,0-11.26-5.12-11.26-11.26s5.12-11.37,11.26-11.26l161.07-.1c6.24,.1,11.26,5.12,11.26,11.37,0,5.12-3.58,9.52-8.4,10.85Zm0-47c-.92,.31-1.84,.41-2.86,.41H175.41c-6.25,0-11.26-5.02-11.26-11.26s5.02-11.26,11.26-11.26h161.07c6.24,0,11.26,5.02,11.26,11.26,0,5.22-3.58,9.62-8.4,10.85Zm-83.35-68.1c3.89,0,7.58-1.54,10.24-4.3,2.76-2.76,4.3-6.45,4.3-10.34,0-8.09-6.55-14.64-14.54-14.64-1.33,0-2.66,.2-3.89,.51-2.46,.72-4.61,1.94-6.45,3.79-2.76,2.76-4.3,6.45-4.3,10.34s1.53,7.58,4.3,10.34,6.45,4.3,10.34,4.3ZM256,0C114.58,0,0,114.58,0,256s114.58,256,256,256,256-114.59,256-256S397.31,0,256,0Zm140.59,398.33c0,5.22-3.48,9.62-8.29,10.85-.92,.31-1.95,.41-2.97,.41H126.57c-6.25,0-11.26-5.02-11.26-11.26V139.57c0-2.97,1.23-5.84,3.28-7.99,2.15-2.15,5.02-3.28,7.99-3.28h94c1.74-5.63,4.81-10.75,9.11-15.05,7.07-6.96,16.38-10.85,26.32-10.85,16.49,0,30.62,10.85,35.33,25.91h94c6.24,0,11.26,5.02,11.26,11.26V398.33Zm-114.38-232.45c-4.71,4.61-10.34,7.88-16.59,9.52-3.07,.92-6.35,1.33-9.62,1.33-16.59,0-30.62-10.96-35.43-25.91h-82.74v236.24h236.24V150.83h-82.74c-1.74,5.63-4.81,10.75-9.11,15.05Zm-23.35,197.32c-.92,.31-1.94,.41-2.87,.41h-80.59c-6.25,0-11.26-5.02-11.26-11.26s5.02-11.26,11.26-11.26h80.59c6.14,0,11.26,5.02,11.26,11.26,0,5.22-3.58,9.62-8.4,10.85Zm80.48-46.9c-.92,.2-1.84,.31-2.86,.31H175.41c-6.14,0-11.26-5.02-11.26-11.26s5.12-11.26,11.26-11.26h161.07c6.24,0,11.26,5.02,11.26,11.26,0,5.22-3.58,9.62-8.4,10.96Zm0-47c-.92,.2-1.84,.41-2.86,.41H175.41c-6.25,0-11.26-5.12-11.26-11.26s5.12-11.37,11.26-11.26l161.07-.1c6.24,.1,11.26,5.12,11.26,11.37,0,5.12-3.58,9.52-8.4,10.85Zm8.4-57.86c0,5.22-3.58,9.62-8.4,10.85-.92,.31-1.84,.41-2.86,.41H175.41c-6.25,0-11.26-5.02-11.26-11.26s5.02-11.26,11.26-11.26h161.07c6.24,0,11.26,5.02,11.26,11.26Zm-91.75-57.24c3.89,0,7.58-1.54,10.24-4.3,2.76-2.76,4.3-6.45,4.3-10.34,0-8.09-6.55-14.64-14.54-14.64-1.33,0-2.66,.2-3.89,.51-2.46,.72-4.61,1.94-6.45,3.79-2.76,2.76-4.3,6.45-4.3,10.34s1.53,7.58,4.3,10.34,6.45,4.3,10.34,4.3Z"/>
  </g>
</svg>