<?xml version="1.0" encoding="UTF-8"?>
<svg id="Camada_2" data-name="Camada 2" xmlns="http://www.w3.org/2000/svg" viewBox="0 0 1012.02 1080">
  <defs>
    <style>
      .cls-1 {
        fill: #22263b;
      }
    </style>
  </defs>
  <g id="Camada_1-2" data-name="Camada 1">
    <path class="cls-1" d="M826.35,875.24c15.74-16.15,31.06-33.14,45.95-50.55,42.8-50.35,81.82-100.07,117.06-149.58l-134.48-98.19c-32.1,47.42-66.3,92.52-102.59,135.32-11.96,14.26-24.34,27.9-36.72,40.91l-207.47-228.87c25.38-17.21,48.46-33.37,69.02-48.47,30.21-22.23,55.8-44.89,76.99-67.97,21.19-23.08,37.13-47.42,48.26-72.58,11.11-25.18,16.57-53.71,16.57-86.02,0-42.38-10.91-82.24-33.15-120-22.23-37.76-54.96-68.82-98.17-92.94C544.4,12.17,491.96,0,430.49,0s-116.22,11.54-161.55,34.82c-45.31,23.08-80.55,54.13-105.73,92.73-25.18,38.81-37.77,80.97-37.77,126.3,0,36.08,8.19,69.43,24.97,99.64,16.57,30.22,36.49,58.32,59.57,84.55,16.37,18.68,32.31,36.72,47.83,54.34-22.24,10.06-45.31,21.19-69.02,33.36-33.14,16.99-63.99,37.97-92.1,62.51-28.11,24.76-51.4,54.13-69.43,88.54C9.02,710.98,0,751.68,0,799.09c0,61.47,16.57,114.54,49.93,159.23,33.14,44.9,77,79.31,131.33,103.64,15.89,7.05,32.22,13.06,49.01,18.04H501.94c20.02-5.37,39.5-11.94,58.41-19.72,49.71-20.36,96.29-45.74,139.72-76.58l86.85,96.3h225.11l-185.67-204.76ZM345.94,189.65c19.09-20.76,46.78-31.05,83.08-31.05,23.07,0,42.79,4.83,58.95,14.26,16.16,9.66,28.32,22.45,36.92,38.6,8.6,16.16,12.81,33.78,12.81,52.87,0,29.15-15.11,59.57-45.32,91.46-20.56,21.61-46.99,42.59-79.72,62.73-20.56-22.87-39.01-43.84-55.38-62.73-26.64-30.83-40.07-61.67-40.07-92.93,0-28.32,9.65-52.66,28.74-73.22Zm168.46,712.87c-42.79,18.67-86.43,27.9-130.7,27.9-36.29,0-67.75-6.3-94.4-18.88-26.64-12.59-47.42-30.22-61.89-52.87-14.69-22.66-22.03-48.04-22.03-76.15,0-33.37,8.6-61.05,25.8-83.08,17-22.24,39.24-41.33,66.51-57.48,20.13-11.97,41.32-23.5,63.35-34.62l228.89,253.85c-24.55,16.36-49.73,30.21-75.53,41.33Z"/>
  </g>
</svg>