<?xml version="1.0" encoding="UTF-8"?>
<svg id="Camada_2" data-name="Camada 2" xmlns="http://www.w3.org/2000/svg" viewBox="0 0 511.99 512">
  <defs>
    <style>
      .cls-1 {
        fill: #fbded3;
      }
    </style>
  </defs>
  <g id="Camada_1-2" data-name="Camada 1">
    <g>
      <path class="cls-1" d="M239.55,189.48v146.25c-32.23-17.9-71.42-24.6-107.52-20.61V162.23c36.48-5.34,77.84,3.98,107.52,27.25Z"/>
      <path class="cls-1" d="M379.96,162.43v152.69c-36.05-3.98-75.24,2.69-107.51,20.61V189.33c28.65-22.92,70.79-31.92,107.51-26.9Z"/>
      <path class="cls-1" d="M256,0C114.58,0,0,114.58,0,256s114.58,256,256,256,255.99-114.59,255.99-256S397.31,0,256,0Zm156.87,334.61c0,10.58-9.86,18.44-20.22,16.01-42.49-9.99-94.49,.49-125.49,29.12-6.3,5.81-16.04,5.8-22.33,0-30.92-28.55-82.91-39.14-125.49-29.12-10.38,2.43-20.22-5.46-20.22-16.01V148.75c0-7.52,5.1-14.09,12.39-15.94,46.4-11.82,103.03-2.42,144.34,27.78,40.36-30.07,97.25-38.94,144.34-27.86,7.43,1.75,12.68,8.39,12.68,16.02v185.86Z"/>
    </g>
  </g>
</svg>