<?xml version="1.0" encoding="UTF-8"?>
<svg id="Camada_2" data-name="Camada 2" xmlns="http://www.w3.org/2000/svg" viewBox="0 0 511.99 512">
  <defs>
    <style>
      .cls-1 {
        fill: #fbc9d6;
      }
    </style>
  </defs>
  <g id="Camada_1-2" data-name="Camada 1">
    <g>
      <path class="cls-1" d="M239.55,189.49v146.24c-32.23-17.89-71.42-24.59-107.52-20.6V162.24c36.48-5.34,77.84,3.98,107.52,27.25Z"/>
      <path class="cls-1" d="M379.96,162.43v152.7c-36.05-3.98-75.24,2.68-107.51,20.6V189.34c28.65-22.92,70.79-31.93,107.51-26.91Z"/>
      <path class="cls-1" d="M256,0C114.58,0,0,114.59,0,256s114.58,256,256,256,255.99-114.58,255.99-256S397.31,0,256,0Zm156.87,334.62c0,10.57-9.86,18.44-20.22,16.01-42.49-10-94.49,.49-125.49,29.11-6.3,5.81-16.04,5.81-22.33,0-30.92-28.55-82.91-39.13-125.49-29.11-10.38,2.43-20.22-5.46-20.22-16.01V148.76c0-7.53,5.1-14.09,12.39-15.94,46.4-11.83,103.03-2.43,144.34,27.77,40.36-30.07,97.25-38.93,144.34-27.85,7.43,1.75,12.68,8.38,12.68,16.02v185.86Z"/>
    </g>
  </g>
</svg>