<?xml version="1.0" encoding="UTF-8"?>
<svg xmlns="http://www.w3.org/2000/svg" xmlns:xlink="http://www.w3.org/1999/xlink" xmlns:svgjs="http://svgjs.com/svgjs" version="1.1" width="512" height="512" x="0" y="0" viewBox="0 0 512.004 512.004" style="enable-background:new 0 0 512 512" xml:space="preserve" class="">
  <g>
    <g>
      <path clip-rule="evenodd" d="m106.55 383.938c4.392 74.356 294.97 74.265 299.252-.002 0-26.833-49.656-49.294-116.202-55.021l-3.423 41.085c-.913 10.961-9.001 20-20 20h-20.001c-10.998 0-19.087-9.037-20-20-1.141-13.695-2.283-27.391-3.424-41.086-66.545 5.727-116.202 28.188-116.202 55.024z" fill="#14c285" fill-rule="evenodd" data-original="#ffbebc"/>
      <path d="m448.897 312.242c-37.286-19.766-88.483-33.248-144.693-38.162l1.297-15.564c11.991-3.931 20.675-15.229 20.675-28.517v-80c0-26.888-15.239-50.284-37.533-62.005 34.966-29.6 13.916-87.993-32.467-87.994-46.383.002-67.433 58.402-32.466 87.995-22.294 11.721-37.534 35.116-37.534 62.005v80c0 13.288 8.684 24.586 20.675 28.517l1.297 15.564c-80.408 7.485-202.675 37.704-207.974 117.919 6.84 92.453 165.16 120.206 256.001 120.003 67.087-.001 130.313-11.753 178.032-33.091 95.279-40.586 105.959-119.348 14.69-166.67zm-222.72-262.242c0-16.542 13.458-30 30-30 39.744 1.508 39.734 58.498 0 60-16.542 0-30-13.458-30-30zm-20.001 180v-80c2.505-66.216 97.487-66.245 100.001.001 0-.001 0 80 0 80 0 5.514-4.486 10-10 10-5.201 0-9.534 3.987-9.965 9.169 0 0-10 120-10 120-.449 5.382-4.039 10.83-10.035 10.83h-20c-5.995 0-9.586-5.449-10.035-10.831l-10-120c-.432-5.183-4.765-9.169-9.965-9.169-5.515 0-10.001-4.486-10.001-10zm219.867 230.655c-88.556 41.486-251.179 41.487-339.733-.002-42.029-18.792-66.134-43.815-66.134-68.651 5.507-64.896 121.705-92.119 189.633-97.99l6.402 76.819c1.385 16.629 14.268 29.169 29.965 29.169h20c15.698 0 28.58-12.541 29.965-29.169l6.402-76.819c53.558 4.687 102.025 17.369 136.986 35.902 76.981 40.215 65.922 95.851-13.486 130.741z" fill="#22263b" data-original="#020288" class=""/>
    </g>
  </g>
</svg>
