<?xml version="1.0" encoding="UTF-8"?>
<svg xmlns="http://www.w3.org/2000/svg" xmlns:xlink="http://www.w3.org/1999/xlink" xmlns:svgjs="http://svgjs.com/svgjs" version="1.1" width="512" height="512" x="0" y="0" viewBox="0 0 512 512" style="enable-background:new 0 0 512 512" xml:space="preserve" class="">
  <g>
    <g>
      <g>
        <g fill="#e2c4ff">
          <path id="XMLID_79_" d="m401.592 281.102h-10.041v-80.327h10.041c22.182 0 40.163 17.982 40.163 40.164 0 22.181-17.982 40.163-40.163 40.163z" fill="#044a76" data-original="#e2c4ff"/>
          <path d="m154.285 175.674h-13.755v130.53h13.755c68.809 0 135.278 24.975 187.062 70.286v-271.102c-51.783 45.311-118.253 70.286-187.062 70.286z" fill="#044a76" data-original="#e2c4ff"/>
        </g>
      </g>
      <g fill="#020288">
        <path d="m502 230.939h-20.082c-5.522 0-10 4.477-10 10s4.478 10 10 10h20.082c5.522 0 10-4.477 10-10s-4.478-10-10-10z" fill="#22263b" data-original="#020288" class=""/>
        <path d="m488.989 197.806 14.201-14.2c3.905-3.905 3.905-10.237 0-14.142-3.904-3.905-10.234-3.905-14.142-.001l-14.201 14.2c-3.905 3.905-3.905 10.237 0 14.142 3.905 3.906 10.235 3.906 14.142.001z" fill="#22263b" data-original="#020288" class=""/>
        <path d="m488.988 284.072c-3.904-3.905-10.237-3.905-14.142 0-3.905 3.906-3.905 10.237.001 14.142l14.201 14.2c3.904 3.905 10.237 3.905 14.142 0 3.905-3.906 3.905-10.237-.001-14.142z" fill="#22263b" data-original="#020288" class=""/>
        <path d="m366.449 65.265c-19.355 0-35.102 15.747-35.102 35.102v281.143c0 19.355 15.747 35.102 35.102 35.102s35.102-15.747 35.102-35.102c0-13.655 0-267.014 0-281.143 0-19.355-15.746-35.102-35.102-35.102zm15.102 316.245c0 8.327-6.774 15.102-15.102 15.102-8.327 0-15.102-6.775-15.102-15.102v-281.143c0-8.327 6.775-15.102 15.102-15.102s15.102 6.775 15.102 15.102z" fill="#22263b" data-original="#020288" class=""/>
        <path d="m133.02 316.204h7.511c5.522 0 10-4.477 10-10v-130.531c0-5.523-4.478-10-10-10h-65.265c-41.502 0-75.266 33.765-75.266 75.266 0 33.14 21.538 61.325 51.344 71.345l23.989 103.947c4.144 17.96 19.91 30.503 38.343 30.503 25.287 0 44.039-23.519 38.344-48.2zm-113.02-75.265c0-30.474 24.792-55.266 55.266-55.266h55.265v110.531h-55.265c-30.474 0-55.266-24.792-55.266-55.265zm93.676 185.796c-9.063 0-16.817-6.168-18.854-15l-22.062-95.594c3.889.128-2.006.025 39.734.064l20.037 86.828c2.797 12.114-6.398 23.702-18.855 23.702z" fill="#22263b" data-original="#020288" class=""/>
      </g>
    </g>
  </g>
</svg>
