<?xml version="1.0" encoding="UTF-8"?>
<svg xmlns="http://www.w3.org/2000/svg" xmlns:xlink="http://www.w3.org/1999/xlink" xmlns:svgjs="http://svgjs.com/svgjs" version="1.1" width="512" height="512" x="0" y="0" viewBox="0 0 512 512" style="enable-background:new 0 0 512 512" xml:space="preserve" class="">
  <g>
<g>
	<g>
		
			<path id="XMLID_26_" style="stroke-width:20;stroke-linecap:round;stroke-linejoin:round;stroke-miterlimit:10;" d="    M161.165,391.561V170.653c0-10.983,8.845-19.961,19.851-20.082c11.186-0.13,20.313,8.896,20.313,20.082v214.331" fill="none" stroke="#22263b" stroke-width="20" stroke-linecap="round" stroke-linejoin="round" stroke-miterlimit="10" data-original="#020288"/>
		
			<path id="XMLID_25_" style="stroke-width:20;stroke-linecap:round;stroke-linejoin:round;stroke-miterlimit:10;" d="    M268.744,247.344c-18.555,16.095-44.421,20.614-67.414,14.388v-20.905c2.681-16.437,11.035-31.849,24.208-43.286    c18.666-16.196,43.698-20.664,66.781-14.288C295.372,207.01,287.41,231.158,268.744,247.344z" fill="none" stroke="#22263b" stroke-width="20" stroke-linecap="round" stroke-linejoin="round" stroke-miterlimit="10" data-original="#020288"/>
		
			<path id="XMLID_24_" style="stroke-width:20;stroke-linecap:round;stroke-linejoin:round;stroke-miterlimit:10;" d="    M161.167,307.396v24.801c-22.813,5.954-48.337,1.366-66.711-14.569C75.8,301.442,67.827,277.294,70.88,253.537    c23.084-6.376,48.126-1.908,66.781,14.288C149.851,278.398,157.903,292.365,161.167,307.396z" fill="none" stroke="#22263b" stroke-width="20" stroke-linecap="round" stroke-linejoin="round" stroke-miterlimit="10" data-original="#020288"/>
		
			<path id="XMLID_23_" style="stroke-width:20;stroke-linecap:round;stroke-linejoin:round;stroke-miterlimit:10;" d="    M397.315,421.673c2.299-3.263,4.247-6.838,5.753-10.724l21.879-56.138c-0.463-0.181-93.384-36.393-93.55-36.458l-21.879,56.128    c-0.924,2.37-1.657,4.759-2.199,7.169v0.01" fill="none" stroke="#22263b" stroke-width="20" stroke-linecap="round" stroke-linejoin="round" stroke-miterlimit="10" data-original="#020288"/>
		
			<line id="XMLID_22_" style="stroke-width:20;stroke-linecap:round;stroke-linejoin:round;stroke-miterlimit:10;" x1="378.174" y1="336.583" x2="432.328" y2="197.651" fill="none" stroke="#22263b" stroke-width="20" stroke-linecap="round" stroke-linejoin="round" stroke-miterlimit="10" data-original="#020288"/>
		
			<line id="XMLID_21_" style="stroke-width:20;stroke-linecap:round;stroke-linejoin:round;stroke-miterlimit:10;" x1="409.172" y1="188.625" x2="455.483" y2="206.676" fill="none" stroke="#22263b" stroke-width="20" stroke-linecap="round" stroke-linejoin="round" stroke-miterlimit="10" data-original="#020288"/>
		
			<circle id="XMLID_19_" style="stroke-width:20;stroke-linecap:round;stroke-linejoin:round;stroke-miterlimit:10;" cx="431.714" cy="80.286" r="20.082" fill="none" stroke="#22263b" stroke-width="20" stroke-linecap="round" stroke-linejoin="round" stroke-miterlimit="10" data-original="#020288"/>
		
			<line id="XMLID_18_" style="stroke-width:20;stroke-linecap:round;stroke-linejoin:round;stroke-miterlimit:10;" x1="431.714" y1="20.041" x2="431.714" y2="10" fill="none" stroke="#22263b" stroke-width="20" stroke-linecap="round" stroke-linejoin="round" stroke-miterlimit="10" data-original="#020288"/>
		
			<line id="XMLID_17_" style="stroke-width:20;stroke-linecap:round;stroke-linejoin:round;stroke-miterlimit:10;" x1="389.115" y1="37.686" x2="382.015" y2="30.586" fill="none" stroke="#22263b" stroke-width="20" stroke-linecap="round" stroke-linejoin="round" stroke-miterlimit="10" data-original="#020288"/>
		
			<line id="XMLID_16_" style="stroke-width:20;stroke-linecap:round;stroke-linejoin:round;stroke-miterlimit:10;" x1="371.469" y1="80.286" x2="361.429" y2="80.286" fill="none" stroke="#22263b" stroke-width="20" stroke-linecap="round" stroke-linejoin="round" stroke-miterlimit="10" data-original="#020288"/>
		
			<line id="XMLID_15_" style="stroke-width:20;stroke-linecap:round;stroke-linejoin:round;stroke-miterlimit:10;" x1="389.115" y1="122.885" x2="382.015" y2="129.985" fill="none" stroke="#22263b" stroke-width="20" stroke-linecap="round" stroke-linejoin="round" stroke-miterlimit="10" data-original="#020288"/>
		
			<line id="XMLID_14_" style="stroke-width:20;stroke-linecap:round;stroke-linejoin:round;stroke-miterlimit:10;" x1="431.714" y1="140.531" x2="431.714" y2="150.571" fill="none" stroke="#22263b" stroke-width="20" stroke-linecap="round" stroke-linejoin="round" stroke-miterlimit="10" data-original="#020288"/>
		
			<line id="XMLID_12_" style="stroke-width:20;stroke-linecap:round;stroke-linejoin:round;stroke-miterlimit:10;" x1="474.314" y1="122.885" x2="481.414" y2="129.985" fill="none" stroke="#22263b" stroke-width="20" stroke-linecap="round" stroke-linejoin="round" stroke-miterlimit="10" data-original="#020288"/>
		
			<line id="XMLID_10_" style="stroke-width:20;stroke-linecap:round;stroke-linejoin:round;stroke-miterlimit:10;" x1="491.959" y1="80.286" x2="502" y2="80.286" fill="none" stroke="#22263b" stroke-width="20" stroke-linecap="round" stroke-linejoin="round" stroke-miterlimit="10" data-original="#020288"/>
		
			<line id="XMLID_9_" style="stroke-width:20;stroke-linecap:round;stroke-linejoin:round;stroke-miterlimit:10;" x1="474.314" y1="37.686" x2="481.414" y2="30.586" fill="none" stroke="#22263b" stroke-width="20" stroke-linecap="round" stroke-linejoin="round" stroke-miterlimit="10" data-original="#020288"/>
	</g>
	<g>
		<path style="" d="M512,512H0v-10c0-49.806,40.521-90.326,90.326-90.326h24.282    c12.086-27.809,45.67-38.198,71.159-23.372c33.796-49.205,106.726-49.121,140.465,0c25.489-14.826,59.074-4.437,71.159,23.372    h24.282C471.479,411.674,512,452.194,512,502V512z" fill="#ec0e47" data-original="#e2c4ff" class=""/>
	</g>
</g>















</g>
</svg>
