<?xml version="1.0" encoding="UTF-8"?>
<svg xmlns="http://www.w3.org/2000/svg" xmlns:xlink="http://www.w3.org/1999/xlink" xmlns:svgjs="http://svgjs.com/svgjs" version="1.1" width="512" height="512" x="0" y="0" viewBox="0 0 512 512" style="enable-background:new 0 0 512 512" xml:space="preserve" class="">
  <g>
<g>
	<path style="fill-rule:evenodd;clip-rule:evenodd;" d="M395.751,67.101l-143.223,54.028l-4.679,1.765l59.671,194.208   c1.424,4.636,6.827,6.85,11.364,5.139l159.871-60.309c4.536-1.711,7.13-6.943,5.139-11.364L400.429,65.337L395.751,67.101z" fill="#fcbf54" data-original="#a4fbc4"/>
	<g>
		
			<line style="fill-rule:evenodd;clip-rule:evenodd;stroke-width:20.0001;stroke-linecap:round;stroke-linejoin:round;stroke-miterlimit:22.9256;" x1="16.503" y1="501.998" x2="113.303" y2="501.998" fill-rule="evenodd" clip-rule="evenodd" fill="none" stroke="#22263b" stroke-width="20.0001" stroke-linecap="round" stroke-linejoin="round" stroke-miterlimit="22.9256" data-original="#020288"/>
		
			<line style="fill-rule:evenodd;clip-rule:evenodd;stroke-width:20.0001;stroke-linecap:round;stroke-linejoin:round;stroke-miterlimit:22.9256;" x1="64.903" y1="502" x2="64.903" y2="411.784" fill-rule="evenodd" clip-rule="evenodd" fill="none" stroke="#22263b" stroke-width="20.0001" stroke-linecap="round" stroke-linejoin="round" stroke-miterlimit="22.9256" data-original="#020288"/>
		
			<path style="fill-rule:evenodd;clip-rule:evenodd;stroke-width:20.0001;stroke-linecap:round;stroke-linejoin:round;stroke-miterlimit:22.9256;" d="    M83.744,430.625c19.834,0,36.062-16.228,36.062-36.061v-18.842h-18.841c-19.834,0-36.062,16.228-36.062,36.062    c0-19.834-16.227-36.062-36.062-36.062H10v18.842c0,19.834,16.228,36.061,36.062,36.061H83.744z" fill-rule="evenodd" clip-rule="evenodd" fill="none" stroke="#22263b" stroke-width="20.0001" stroke-linecap="round" stroke-linejoin="round" stroke-miterlimit="22.9256" data-original="#020288"/>
		
			<path style="fill-rule:evenodd;clip-rule:evenodd;stroke-width:20.0001;stroke-linecap:round;stroke-linejoin:round;stroke-miterlimit:22.9256;" d="    M43.384,332.872V296.66c0-21.217,8.428-41.565,23.431-56.568c15.003-15.003,35.351-23.431,56.568-23.431" fill-rule="evenodd" clip-rule="evenodd" fill="none" stroke="#22263b" stroke-width="20.0001" stroke-linecap="round" stroke-linejoin="round" stroke-miterlimit="22.9256" data-original="#020288"/>
		
			<path style="fill-rule:evenodd;clip-rule:evenodd;stroke-width:20.0001;stroke-linecap:round;stroke-linejoin:round;stroke-miterlimit:22.9256;" d="    M123.384,256.66c-10.609,0-20.783,4.214-28.284,11.716c-7.501,7.501-11.716,17.676-11.716,28.284l0,36.212" fill-rule="evenodd" clip-rule="evenodd" fill="none" stroke="#22263b" stroke-width="20.0001" stroke-linecap="round" stroke-linejoin="round" stroke-miterlimit="22.9256" data-original="#020288"/>
		
			<path style="fill-rule:evenodd;clip-rule:evenodd;stroke-width:20.0001;stroke-linecap:round;stroke-linejoin:round;stroke-miterlimit:22.9256;" d="    M243.693,81.276l132.37-49.934c4.538-1.712,9.372,0.718,11.364,5.139l96.467,214.087c1.992,4.421-0.602,9.653-5.139,11.364    L318.885,322.24c-4.536,1.711-9.939-0.502-11.364-5.139L238.555,92.64C237.13,88.003,239.155,82.988,243.693,81.276z" fill-rule="evenodd" clip-rule="evenodd" fill="none" stroke="#22263b" stroke-width="20.0001" stroke-linecap="round" stroke-linejoin="round" stroke-miterlimit="22.9256" data-original="#020288"/>
		
			<path style="fill-rule:evenodd;clip-rule:evenodd;stroke-width:20.0001;stroke-linecap:round;stroke-linejoin:round;stroke-miterlimit:22.9256;" d="    M269.28,71.103l-1.003-2.659c-8.388-22.235,2.941-47.289,25.176-55.676l0,0c22.235-8.388,47.289,2.941,55.677,25.176l1.003,2.659" fill-rule="evenodd" clip-rule="evenodd" fill="none" stroke="#22263b" stroke-width="20.0001" stroke-linecap="round" stroke-linejoin="round" stroke-miterlimit="22.9256" data-original="#020288"/>
		
			<path style="fill-rule:evenodd;clip-rule:evenodd;stroke-width:20.0001;stroke-linecap:round;stroke-linejoin:round;stroke-miterlimit:22.9256;" d="    M412.997,81.079l13.888-5.239c22.991-8.673,48.898,3.042,57.57,26.033l14.213,37.676c10.099,26.772-3.543,56.94-30.315,67.039" fill-rule="evenodd" clip-rule="evenodd" fill="none" stroke="#22263b" stroke-width="20.0001" stroke-linecap="round" stroke-linejoin="round" stroke-miterlimit="22.9256" data-original="#020288"/>
		
			<path style="fill-rule:evenodd;clip-rule:evenodd;stroke-width:20.0001;stroke-linecap:round;stroke-linejoin:round;stroke-miterlimit:22.9256;" d="    M169.165,165.188c23.194,0.09,42.101,18.117,42.017,40.061l-0.117,30.245c-0.085,21.944-19.13,39.825-42.324,39.736    L169.165,165.188z" fill-rule="evenodd" clip-rule="evenodd" fill="none" stroke="#22263b" stroke-width="20.0001" stroke-linecap="round" stroke-linejoin="round" stroke-miterlimit="22.9256" data-original="#020288"/>
		
			<path style="fill-rule:evenodd;clip-rule:evenodd;stroke-width:20.0001;stroke-linecap:round;stroke-linejoin:round;stroke-miterlimit:22.9256;" d="    M297.254,290.126l-84.92-53.827 M212.488,205.377l58.48,5.745" fill-rule="evenodd" clip-rule="evenodd" fill="none" stroke="#22263b" stroke-width="20.0001" stroke-linecap="round" stroke-linejoin="round" stroke-miterlimit="22.9256" data-original="#020288"/>
		
			<path style="fill-rule:evenodd;clip-rule:evenodd;stroke-width:20.0001;stroke-linecap:round;stroke-linejoin:round;stroke-miterlimit:22.9256;" d="    M362.728,154.093l-5.712-0.183c-10.727-0.342-19.785,8.152-20.127,18.88c-0.343,10.727,8.153,19.785,18.879,20.128l5.712,0.182    l5.713,0.183c10.727,0.343,19.222,9.401,18.879,20.128c-0.342,10.728-9.4,19.223-20.127,18.88l-5.712-0.183" fill-rule="evenodd" clip-rule="evenodd" fill="none" stroke="#22263b" stroke-width="20.0001" stroke-linecap="round" stroke-linejoin="round" stroke-miterlimit="22.9256" data-original="#020288"/>
		
			<line style="fill-rule:evenodd;clip-rule:evenodd;stroke-width:20.0001;stroke-linecap:round;stroke-linejoin:round;stroke-miterlimit:22.9256;" x1="346.317" y1="152.905" x2="342.461" y2="142.682" fill-rule="evenodd" clip-rule="evenodd" fill="none" stroke="#22263b" stroke-width="20.0001" stroke-linecap="round" stroke-linejoin="round" stroke-miterlimit="22.9256" data-original="#020288"/>
		
			<line style="fill-rule:evenodd;clip-rule:evenodd;stroke-width:20.0001;stroke-linecap:round;stroke-linejoin:round;stroke-miterlimit:22.9256;" x1="380.5" y1="243.519" x2="376.297" y2="232.379" fill-rule="evenodd" clip-rule="evenodd" fill="none" stroke="#22263b" stroke-width="20.0001" stroke-linecap="round" stroke-linejoin="round" stroke-miterlimit="22.9256" data-original="#020288"/>
	</g>
</g>















</g>
</svg>
