<?xml version="1.0" encoding="UTF-8"?>
<svg xmlns="http://www.w3.org/2000/svg" xmlns:xlink="http://www.w3.org/1999/xlink" xmlns:svgjs="http://svgjs.com/svgjs" version="1.1" width="512" height="512" x="0" y="0" viewBox="0 0 512.002 512.002" style="enable-background:new 0 0 512 512" xml:space="preserve" class="">
  <g>
    <g>
      <path clip-rule="evenodd" d="m50.001 49.999h412v280h-412z" fill="#ee6c3b" fill-rule="evenodd" data-original="#a4fbc4" class=""/>
      <g fill="#020288">
        <path d="m502.001 0h-492c-5.522 0-10 4.477-10 10v360c0 5.523 4.478 10 10 10h98.891l-67.551 117.001c-2.762 4.783-1.123 10.899 3.66 13.66 4.698 2.737 10.884 1.166 13.66-3.66l34.918-60.479h324.844l34.918 60.479c2.777 4.827 8.962 6.397 13.66 3.66 4.783-2.761 6.422-8.877 3.66-13.66l-67.551-117.001h98.891c5.522 0 10-4.477 10-10v-360c0-5.523-4.478-10-10-10zm-95.125 426.522h-301.75l26.86-46.522h248.031zm85.125-66.522h-472v-340h472z" fill="#22263b" data-original="#020288" class=""/>
        <path d="m165.272 232.95c-3.904-3.904-10.234-3.905-14.143 0l-7.929 7.929-7.929-7.929c-3.906-3.905-10.236-3.905-14.143 0-3.905 3.906-3.905 10.237 0 14.143l7.929 7.928-7.929 7.928c-3.905 3.905-3.905 10.237 0 14.143 3.906 3.905 10.236 3.905 14.143 0l7.929-7.929 7.929 7.929c3.906 3.905 10.237 3.905 14.143 0 3.905-3.906 3.905-10.237 0-14.143l-7.929-7.928 7.929-7.928c3.906-3.906 3.906-10.238 0-14.143z" fill="#22263b" data-original="#020288" class=""/>
        <path d="m178.179 140.964c-16.542 0-30 13.458-30 30-.22 25.109 29.964 39.205 49.002 23.198l89.677 54.303c-3.993 18.284 10.62 36.319 29.377 36.098 16.542 0 30-13.457 30-29.999.218-25.109-29.962-39.207-49.003-23.198l-89.676-54.303c.784-3.714.828-7.842.121-11.582l37.078-21.407-.895 3.34c-1.43 5.334 1.736 10.818 7.071 12.247 5.191 1.435 10.838-1.693 12.247-7.071l7.143-26.659c1.43-5.334-1.736-10.818-7.071-12.247l-26.659-7.143c-12.908-2.984-17.839 15.456-5.176 19.318l3.34.895-37.093 21.416c-5.247-4.49-12.054-7.206-19.483-7.206zm0 40c-5.514 0-10-4.486-10-10 .503-13.248 19.499-13.244 20 0 0 5.515-4.487 10-10 10zm138.055 63.598c5.514 0 10 4.486 10 10-.503 13.247-19.499 13.244-20 0 0-5.513 4.487-10 10-10z" fill="#22263b" data-original="#020288" class=""/>
        <path d="m319.041 162.581c3.906 3.905 10.236 3.905 14.143 0l7.929-7.929 7.929 7.929c3.906 3.905 10.237 3.905 14.143 0 3.905-3.906 3.905-10.237 0-14.143l-7.929-7.928 7.929-7.928c3.905-3.905 3.905-10.237 0-14.143-3.905-3.904-10.235-3.904-14.143 0l-7.929 7.929-7.929-7.929c-3.906-3.905-10.236-3.905-14.143 0-3.905 3.906-3.905 10.237 0 14.143l7.929 7.928-7.929 7.928c-3.905 3.905-3.905 10.237 0 14.143z" fill="#22263b" data-original="#020288" class=""/>
        <path d="m90.002 100h59.399c13.254-.492 13.244-19.513 0-20h-59.399c-13.254.493-13.244 19.513 0 20z" fill="#22263b" data-original="#020288" class=""/>
        <path d="m392.301 299.999h29.7c13.254-.492 13.244-19.513 0-20h-29.7c-13.254.492-13.244 19.512 0 20z" fill="#22263b" data-original="#020288" class=""/>
        <path d="m392.301 259.999h29.7c13.254-.492 13.244-19.513 0-20h-29.7c-13.254.492-13.244 19.512 0 20z" fill="#22263b" data-original="#020288" class=""/>
        <path d="m392.301 219.999h29.7c13.254-.492 13.244-19.513 0-20h-29.7c-13.254.492-13.244 19.512 0 20z" fill="#22263b" data-original="#020288" class=""/>
      </g>
    </g>
  </g>
</svg>
