<?xml version="1.0" encoding="UTF-8"?>
<svg id="Camada_2" data-name="Camada 2" xmlns="http://www.w3.org/2000/svg" viewBox="0 0 1056.87 1080">
  <defs>
    <style>
      .cls-1 {
        fill: #fcbf54;
      }
    </style>
  </defs>
  <g id="Camada_1-2" data-name="Camada 1">
    <path class="cls-1" d="M1024.41,303.95c-21.69-57.28-53.23-108.78-94.58-154.52-41.42-45.7-92.18-82.04-152.34-109C717.33,13.5,648.76,0,571.74,0c-82.77,0-159.05,14.68-228.84,44.04-69.79,29.36-130.17,70.53-181.19,123.46-51.05,52.93-90.74,114.79-119.11,185.54C14.16,423.79,0,499.59,0,580.45c0,95.28,19,180.45,57.03,255.55,37.99,75.06,94.06,134.52,168.2,178.31,74.11,43.78,165.55,65.69,274.33,65.69,74.1,0,138.1-7.01,192.03-20.95,53.89-13.94,102.51-32.94,145.85-57.03l-53.45-129.95c-41.39,20.21-83.51,35.89-126.34,46.96-42.83,11.07-89.74,16.6-140.76,16.6-78.94,0-144.89-14.46-197.82-43.34-52.93-28.85-92.66-70.01-119.11-123.42-26.48-53.45-39.69-116.23-39.69-188.42,0-64.48,9.59-123.2,28.88-176.17,19.22-52.93,46.66-98.89,82.29-137.88,35.6-38.99,78.68-69.31,129.21-90.96,50.53-21.65,107.56-32.5,171.08-32.5,53.89,0,101.07,8.93,141.5,26.71,40.43,17.85,74.36,42.12,101.81,72.92,27.44,30.84,47.88,66.43,61.34,106.86,13.5,40.43,20.21,83.73,20.21,129.95,0,57.73-5.75,102.03-17.3,132.83-11.55,30.8-25.05,52.23-40.43,64.26-15.42,12.03-28.88,18.04-40.43,18.04-9.63,0-17.34-2.4-23.13-7.23-5.75-4.8-9.63-11.55-11.55-20.21-1.92-8.67-2.88-18.78-2.88-30.32,0-5.75,.22-12.5,.74-20.21,.44-7.67,1.18-13.94,2.14-18.78l37.55-306.08h-167.5l-7.04,66.17c-11.99-18.59-26.26-34.64-42.75-48.14-26.48-21.65-57.54-32.46-93.14-32.46-37.51,0-74.36,12.25-110.44,36.81-36.11,24.53-65.95,59.9-89.52,106.12-23.61,46.18-35.37,102.99-35.37,170.38,0,47.14,7.93,88.05,23.83,122.72,15.86,34.64,37.99,61.12,66.4,79.42,28.4,18.3,61.86,27.41,100.37,27.41,40.43,0,77.46-12.03,111.18-36.08,24.12-17.23,44.82-40.28,62.01-69.16,2.54,11.51,6.68,22.5,12.36,33.05,13.94,26.01,34.16,46.92,60.64,62.82,26.45,15.86,55.59,23.83,87.35,23.83,33.68,0,66.88-6.49,99.63-19.51,32.72-12.98,62.56-33.68,89.52-62.08,26.93-28.37,48.36-64.96,64.22-109.74,15.9-44.74,23.83-99.37,23.83-163.85,0-59.68-10.81-118.15-32.46-175.43Zm-480.82,355.18c-15.9,12.98-32.5,19.48-49.8,19.48-21.21,0-37.33-8.41-48.4-25.27-11.07-16.82-16.6-41.13-16.6-72.89,0-29.84,4.8-57.06,14.46-81.59,9.59-24.53,22.13-44.04,37.51-58.46,15.38-14.46,32.72-21.65,51.97-21.65,13.5,0,25.27,3.58,35.37,10.81,10.11,7.23,18.07,18.04,23.83,32.5,5.79,14.42,8.67,32.72,8.67,54.85,0,33.71-5.53,62.6-16.6,86.65-11.07,24.05-24.53,42.6-40.43,55.59Z"/>
  </g>
</svg>