<?xml version="1.0" encoding="UTF-8"?>
<svg xmlns="http://www.w3.org/2000/svg" xmlns:xlink="http://www.w3.org/1999/xlink" xmlns:svgjs="http://svgjs.com/svgjs" version="1.1" width="512" height="512" x="0" y="0" viewBox="0 0 512 512" style="enable-background:new 0 0 512 512" xml:space="preserve" class="">
  <g>
<g>
	<path style="fill-rule:evenodd;clip-rule:evenodd;" d="M39.354,259.223L39.354,259.223L39.354,259.223z    M91.407,259.223h97.383h3.681v-22.289c0-14.701,12.027-26.729,26.728-26.729c14.701,0,26.728,12.028,26.728,26.729l0,2.979   l80.353,9.403l3.421-1.433c11.993-9.557,19.713-24.278,19.713-40.713V52.052C349.415,23.424,325.991,0,297.362,0H52.053   C23.424,0,0,23.424,0,52.052V207.17c0,23.463,15.733,43.425,37.17,49.867l2.185,2.185l52.053,52.053V259.223z" fill="#fbded3" data-original="#e2c4ff" class=""/>
	<g>
		
			<path style="fill-rule:evenodd;clip-rule:evenodd;stroke-width:19.9998;stroke-linecap:round;stroke-linejoin:round;stroke-miterlimit:2.6131;" d="    M245.945,239.916l219.378,25.672C485.356,267.932,502,282.095,502,302.264v72.253c0,20.169-16.641,34.332-36.676,36.676    l-219.299,25.662" fill-rule="evenodd" clip-rule="evenodd" fill="none" stroke="#f6ad92" stroke-width="19.9998" stroke-linecap="round" stroke-linejoin="round" stroke-miterlimit="2.6131" data-original="#020288" class=""/>
		
			<path style="fill-rule:evenodd;clip-rule:evenodd;stroke-width:19.9998;stroke-linecap:round;stroke-linejoin:round;stroke-miterlimit:2.6131;" d="    M219.199,210.206L219.199,210.206c14.701,0,26.728,12.027,26.728,26.728v202.912c0,14.701-12.028,26.729-26.728,26.729h0    c-14.701,0-26.728-12.028-26.728-26.729V236.934C192.471,222.233,204.498,210.206,219.199,210.206z" fill-rule="evenodd" clip-rule="evenodd" fill="none" stroke="#f6ad92" stroke-width="19.9998" stroke-linecap="round" stroke-linejoin="round" stroke-miterlimit="2.6131" data-original="#020288" class=""/>
		
			<path style="fill-rule:evenodd;clip-rule:evenodd;stroke-width:19.9998;stroke-linecap:round;stroke-linejoin:round;stroke-miterlimit:2.6131;" d="    M191.101,301.714h-23.518c-13.908,0-25.287,8.252-25.287,18.338l0,36.677c0,10.086,11.379,18.338,25.287,18.338h22.943" fill-rule="evenodd" clip-rule="evenodd" fill="none" stroke="#f6ad92" stroke-width="19.9998" stroke-linecap="round" stroke-linejoin="round" stroke-miterlimit="2.6131" data-original="#020288" class=""/>
		
			<path style="fill-rule:evenodd;clip-rule:evenodd;stroke-width:19.9998;stroke-linecap:round;stroke-linejoin:round;stroke-miterlimit:2.6131;" d="    M401.347,418.88L394.879,502h23.13c12.722,0,23.94-10.409,24.93-23.13l5.094-65.458" fill-rule="evenodd" clip-rule="evenodd" fill="none" stroke="#f6ad92" stroke-width="19.9998" stroke-linecap="round" stroke-linejoin="round" stroke-miterlimit="2.6131" data-original="#020288" class=""/>
		
			<line style="fill-rule:evenodd;clip-rule:evenodd;stroke-width:19.9998;stroke-linecap:round;stroke-linejoin:round;stroke-miterlimit:2.6131;" x1="385.09" y1="260.025" x2="385.09" y2="414.843" fill-rule="evenodd" clip-rule="evenodd" fill="none" stroke="#f6ad92" stroke-width="19.9998" stroke-linecap="round" stroke-linejoin="round" stroke-miterlimit="2.6131" data-original="#020288" class=""/>
		
			<line style="fill-rule:evenodd;clip-rule:evenodd;stroke-width:19.9998;stroke-linecap:round;stroke-linejoin:round;stroke-miterlimit:2.6131;" x1="448.049" y1="268.06" x2="448.049" y2="406.043" fill-rule="evenodd" clip-rule="evenodd" fill="none" stroke="#f6ad92" stroke-width="19.9998" stroke-linecap="round" stroke-linejoin="round" stroke-miterlimit="2.6131" data-original="#020288" class=""/>
	</g>
</g>















</g>
</svg>
