<?xml version="1.0" encoding="UTF-8"?>
<svg id="Camada_2" data-name="Camada 2" xmlns="http://www.w3.org/2000/svg" viewBox="0 0 642.2 1080">
  <defs>
    <style>
      .cls-1 {
        fill: #fff;
      }
    </style>
  </defs>
  <g id="Camada_1-2" data-name="Camada 1">
    <path class="cls-1" d="M642.2,722.32c0,50.33-12.78,93.49-38.32,129.49-25.56,36-61.55,63.29-108.01,81.87-27.36,10.94-57.81,18.66-91.35,23.16l4.25,123.16h-142.83l4.25-123.39c-27.25-4.61-53.63-12.45-79.16-23.52-43.74-18.95-82.26-43.92-115.54-74.89-33.3-30.97-58.46-65.04-75.49-102.2l138.2-97.54c19.35,32.51,38.7,59.61,58.05,81.28,19.35,21.68,40.45,37.95,63.29,48.78,22.84,10.84,48.2,16.26,76.07,16.26,23.22,0,42-3.09,56.32-9.28,14.32-6.19,25.16-15.29,32.53-27.29,7.35-12,11.03-26.52,11.03-43.56,0-21.68-7.56-39.67-22.65-53.99-15.1-14.33-35.23-26.92-60.4-37.75-25.16-10.84-53.61-22.45-85.34-34.84-20.13-6.97-42.79-16.85-67.95-29.61-25.16-12.77-49.16-29.23-72-49.36-22.83-20.12-41.81-44.32-56.9-72.57-15.1-28.26-22.64-62.14-22.64-101.63s12.19-75.86,36.58-109.16c24.4-33.28,58.07-59.98,101.04-80.12,25.88-12.13,54.22-20.6,85.02-25.41L265.94,0h144l-4.33,130.46c26.14,4.03,49.45,10.48,69.94,19.35,37.55,16.26,68.71,37.54,93.49,63.86,24.77,26.33,45.28,54.2,61.54,83.62l-147.48,84.77c-11.62-22.44-24.59-42.19-38.91-59.21-14.33-17.03-30.01-30.01-47.04-38.91-17.02-8.91-36-13.36-56.89-13.36s-38.14,3.29-51.68,9.87c-13.55,6.58-23.61,15.29-30.19,26.13-6.58,10.83-9.87,23.23-9.87,37.16,0,23.24,8.71,41.82,26.13,55.75,17.42,13.94,40.26,26.13,68.51,36.58,28.26,10.46,58.64,21.88,91.17,34.26,27.86,10.07,54.19,22.26,78.97,36.59,24.77,14.32,46.84,31.54,66.19,51.66,19.35,20.14,34.64,43.55,45.87,70.27,11.23,26.71,16.84,57.87,16.84,93.47Z"/>
  </g>
</svg>