<?xml version="1.0" encoding="UTF-8"?>
<svg id="Camada_2" data-name="Camada 2" xmlns="http://www.w3.org/2000/svg" viewBox="0 0 763.12 1080">
  <defs>
    <style>
      .cls-1 {
        fill: #fff;
      }
    </style>
  </defs>
  <g id="Camada_1-2" data-name="Camada 1">
    <path class="cls-1" d="M521.83,246.38c-12.61-19.85-31.25-34.88-55.96-45.06-24.71-10.18-54.03-15.26-87.94-15.26-44.58,0-87.21,10.68-127.91,31.98-40.7,21.33-74.63,52.33-101.75,93.03L0,188.96c33.91-39.72,70.25-73.63,109.02-101.75,38.75-28.09,81.4-49.65,127.91-64.68C283.45,7.52,335.27,0,392.46,0c47.47,0,93.25,7.04,137.36,21.08,44.09,14.06,83.58,34.89,118.47,62.5,34.89,27.62,62.73,61.05,83.58,100.3,20.83,39.25,31.25,84.08,31.25,134.45,0,59.12-15.26,110.47-45.79,154.08-30.52,43.61-69.54,78.74-117.01,105.38-47.49,26.66-97.39,44.33-149.72,53.06l-5.82,122.1h-177.34l-29.07-258.74h46.51c58.14,0,106.11-9.45,143.9-28.34,37.79-18.89,65.89-41.9,84.31-69.04,18.4-27.12,27.62-53.28,27.62-78.49,0-28.09-6.32-52.08-18.9-71.95ZM258.74,875.05c26.16-24.21,59.09-36.34,98.84-36.34s72.43,12.13,98.12,36.34c25.66,24.23,38.52,52.33,38.52,84.3s-12.86,61.3-38.52,85.04c-25.69,23.73-58.39,35.61-98.12,35.61s-72.68-11.88-98.84-35.61c-26.16-23.74-39.25-52.08-39.25-85.04s13.08-60.07,39.25-84.3Z"/>
  </g>
</svg>