<?xml version="1.0" encoding="UTF-8"?>
<svg id="Camada_2" data-name="Camada 2" xmlns="http://www.w3.org/2000/svg" viewBox="0 0 512 512">
  <defs>
    <style>
      .cls-1 {
        fill: #f4f5f9;
      }
    </style>
  </defs>
  <g id="Camada_1-2" data-name="Camada 1">
    <g>
      <path class="cls-1" d="M235.01,249.04v-97.79c0-11.57,9.42-20.89,20.99-20.89s20.89,9.32,20.89,20.89v97.79c0,11.57-9.32,20.89-20.89,20.89s-20.99-9.32-20.99-20.89Z"/>
      <path class="cls-1" d="M304.84,242.07h27.95v6.96c0,42.29-34.51,76.8-76.8,76.8s-76.8-34.51-76.8-76.8v-6.96h27.85v6.96c0,26.93,22.02,48.84,48.95,48.84s48.84-21.91,48.84-48.84v-6.96Z"/>
      <path class="cls-1" d="M256,0C114.58,0,0,114.59,0,256s114.58,256,256,256,256-114.58,256-256S397.31,0,256,0Zm104.65,249.04c0,53.04-39.52,96.87-90.72,103.73v28.88h20.99c7.68,0,13.92,6.25,13.92,14.03s-6.24,13.92-13.92,13.92h-69.84c-7.68,0-14.03-6.24-14.03-13.92s6.35-14.03,14.03-14.03h20.89v-28.88c-51.1-6.86-90.73-50.69-90.73-103.73v-48.84c0-7.78,6.25-14.03,13.93-14.03s14.03,6.25,14.03,14.03v13.93h27.85v-62.87c0-26.93,22.02-48.84,48.95-48.84s48.84,21.91,48.84,48.84v62.87h27.95v-13.93c0-7.78,6.25-14.03,13.93-14.03s13.92,6.25,13.92,14.03v48.84Z"/>
    </g>
  </g>
</svg>